<svg width="250" height="250" viewBox="0 0 250 250" fill="none" xmlns="http://www.w3.org/2000/svg">
<path d="M124.998 0C56.0497 0 0 43.1072 0 95.7015C0 134.843 30.9569 169.546 78.8796 184.111C80.8583 184.713 82.5391 185.817 83.6175 187.229C90.7105 196.515 102.189 202.773 115.382 204.828V242.674C115.382 246.721 119.689 250 124.998 250C130.308 250 134.614 246.721 134.614 242.674V204.828C147.808 202.773 159.286 196.515 166.383 187.229C167.461 185.817 169.142 184.71 171.127 184.109C219.04 169.543 250 134.843 250 95.7015C250 43.1645 194.022 0 124.998 0ZM124.998 161.619C118.576 161.619 113.147 158.119 112.092 153.291L102.346 108.749C100.015 98.1 110.795 88.3785 124.998 88.3785C139.171 88.3785 149.988 98.0739 147.654 108.749L137.908 153.291C136.85 158.119 131.42 161.619 124.998 161.619ZM83.3744 111.157L89.5363 139.319C69.9996 130.152 57.6894 113.863 57.6894 95.7015C57.6894 67.4304 87.8863 44.4301 124.998 44.4301C162.11 44.4301 192.307 67.4304 192.307 95.7015C192.307 113.863 179.997 130.152 160.46 139.319L166.622 111.157C170.905 91.5869 151.098 73.7273 124.998 73.7273C98.9573 73.7299 79.085 91.5478 83.3744 111.157ZM164.01 170.502C158.054 172.304 152.994 175.627 149.759 179.861C146.202 184.518 140.845 187.906 134.614 189.627V175.166C145.456 172.611 153.922 165.835 156.51 157.098C188.966 147.384 211.536 123.512 211.536 95.7015C211.536 59.3548 172.716 29.7816 124.998 29.7816C77.2809 29.7816 38.4607 59.3548 38.4607 95.7015C38.4607 123.478 60.9895 147.374 93.4868 157.098C96.0748 165.835 104.541 172.611 115.382 175.166V189.627C109.152 187.903 103.798 184.518 100.238 179.859C97.0026 175.627 91.9429 172.306 86.0001 170.504C45.4374 158.174 19.2287 128.814 19.2287 95.7015C19.2287 51.0083 66.679 14.6486 124.998 14.6486C183.321 14.6486 230.768 51.0083 230.768 95.7015C230.768 128.814 204.559 158.174 164.01 170.502Z" fill="#FF0000"/>
</svg>
