<?xml version="1.0" encoding="utf-8"?>
<!-- Generator: Adobe Illustrator 25.0.1, SVG Export Plug-In . SVG Version: 6.00 Build 0)  -->
<svg version="1.1" id="Layer_1" xmlns="http://www.w3.org/2000/svg" xmlns:xlink="http://www.w3.org/1999/xlink" x="0px" y="0px"
	 viewBox="0 0 250 250" style="enable-background:new 0 0 250 250;" xml:space="preserve">
<style type="text/css">
	.st0{display:none;fill-rule:evenodd;clip-rule:evenodd;fill:#545454;}
	.st1{fill-rule:evenodd;clip-rule:evenodd;fill:#FFFFFF;filter:url(#Adobe_OpacityMaskFilter);}
	.st2{display:none;mask:url(#path-1-inside-1_1_);}
	.st3{fill:#000002;}
</style>
<path class="st0" d="M125,0C56,0,0,56,0,125c0,69,56,125,125,125c69,0,125-56,125-125C250,56,194,0,125,0z"/>
<defs>
	<filter id="Adobe_OpacityMaskFilter" filterUnits="userSpaceOnUse" x="-2" y="-2" width="254" height="254">
		<feColorMatrix  type="matrix" values="1 0 0 0 0  0 1 0 0 0  0 0 1 0 0  0 0 0 1 0"/>
	</filter>
</defs>
<mask maskUnits="userSpaceOnUse" x="-2" y="-2" width="254" height="254" id="path-1-inside-1_1_">
	<path class="st1" d="M125,0C56,0,0,56,0,125c0,69,56,125,125,125c69,0,125-56,125-125C250,56,194,0,125,0z M158.7,85.7
		c9.5,9.5,19,19,28.5,28.5c5.7,5.7,5.8,15.2,0.2,20.9c-14.3,14.3-28.5,28.5-42.8,42.8c-13.6,13.6-34.6-7.3-21.1-20.8
		c3.9-3.9,7.8-7.8,11.7-11.7c2-2,3.9-3.9,5.9-5.9H72.2c-19.1,0-18.9-29.6,0.2-29.6H141l-17.4-17.4c-13.6-13.6,7.3-34.6,20.8-21.1
		C149.2,76.1,154,80.9,158.7,85.7z"/>
</mask>
<path class="st2" d="M187.2,114.1l-1.4,1.4l0,0L187.2,114.1z M158.7,85.7l1.4-1.4l0,0L158.7,85.7z M141,109.8v2
	c0.8,0,1.5-0.5,1.8-1.2c0.3-0.7,0.1-1.6-0.4-2.2L141,109.8z M123.6,92.4L125,91v0L123.6,92.4z M144.4,71.4l1.4-1.4l0,0L144.4,71.4z
	 M2,125C2,57.1,57.1,2,125,2v-4C54.9-2-2,54.9-2,125H2z M125,248C57.1,248,2,192.9,2,125h-4c0,70.1,56.9,127,127,127V248z M248,125
	c0,67.9-55.1,123-123,123v4c70.1,0,127-56.9,127-127H248z M125,2c67.9,0,123,55.1,123,123h4C252,54.9,195.1-2,125-2V2z M102.3,71.4
	H84.2c-6,0-10.9,4.9-10.9,10.9v105.1c0,6,4.9,10.9,10.9,10.9h18.1c6,0,10.9-4.9,10.9-10.9V82.2C113.2,76.2,108.3,71.4,102.3,71.4z
	 M163,71.4h-18.1c-6,0-10.9,4.9-10.9,10.9v105.1c0,6,4.9,10.9,10.9,10.9H163c6,0,10.9-4.9,10.9-10.9V82.2
	C173.9,76.2,169,71.4,163,71.4z"/>
<g>
	<path class="st3" d="M124,4C57.3,4,3,58.3,3,125s54.3,121,121,121c66.7,0,121-54.3,121-121S190.7,4,124,4z M124,232.3
		c-59.2,0-107.3-48.1-107.3-107.3S64.8,17.7,124,17.7c59.2,0,107.3,48.1,107.3,107.3S183.2,232.3,124,232.3z"/>
	<g>
		<g>
			<path d="M104.1,53.3H61.2c-3.6,0-6.5,2.9-6.5,6.5V196c0,3.6,2.9,6.5,6.5,6.5h42.9c3.6,0,6.5-2.9,6.5-6.5V59.8
				C110.7,56.2,107.7,53.3,104.1,53.3z M97.6,189.5H67.7V66.3h29.9V189.5z"/>
			<path d="M187.5,53.3h-42.9c-3.6,0-6.5,2.9-6.5,6.5V196c0,3.6,2.9,6.5,6.5,6.5h42.9c3.6,0,6.5-2.9,6.5-6.5V59.8
				C194,56.2,191.1,53.3,187.5,53.3z M181,189.5h-29.9V66.3H181V189.5z"/>
		</g>
	</g>
</g>
</svg>
